<?xml version="1.0" encoding="utf-8"?>
<!-- Generator: Adobe Illustrator 24.3.0, SVG Export Plug-In . SVG Version: 6.00 Build 0)  -->
<svg version="1.1" xmlns="http://www.w3.org/2000/svg" xmlns:xlink="http://www.w3.org/1999/xlink" x="0px" y="0px"
	 viewBox="0 0 512 512" style="enable-background:new 0 0 512 512;" xml:space="preserve">
<style type="text/css">
	.st0{display:none;}
	.st1{display:inline;fill:#FFFFFF;}
	.st2{display:inline;}
	.st3{fill:#464646;}
	.st4{fill:#737373;}
	.st5{fill:#E66D00;}
	.st6{fill:#B35400;}
	.st7{fill:#E6E6E6;}
	.st8{fill:#AAAAAA;}
	.st9{fill:#FF7900;}
</style>
<g id="Guides" class="st0">
	<g>
		<circle class="st1" cx="371" cy="141" r="39.5"/>
		<path class="st2" d="M371,102c21.5,0,39,17.5,39,39s-17.5,39-39,39s-39-17.5-39-39S349.5,102,371,102 M371,101
			c-22.09,0-40,17.91-40,40s17.91,40,40,40s40-17.91,40-40S393.09,101,371,101L371,101z"/>
	</g>
	<g>
		<circle class="st1" cx="141" cy="141" r="39.5"/>
		<path class="st2" d="M141,102c21.5,0,39,17.5,39,39s-17.5,39-39,39s-39-17.5-39-39S119.5,102,141,102 M141,101
			c-22.09,0-40,17.91-40,40s17.91,40,40,40s40-17.91,40-40S163.09,101,141,101L141,101z"/>
	</g>
</g>
<g id="Arms">
	<g>
		<path class="st3" d="M140.59,400.41c-7.75,0-15.03-3.02-20.51-8.49c-5.48-5.48-8.49-12.76-8.49-20.51s3.02-15.03,8.49-20.51
			L350.9,120.09c5.48-5.48,12.76-8.49,20.51-8.49s15.03,3.02,20.51,8.49c11.31,11.31,11.31,29.71,0,41.01L161.1,391.91
			C155.62,397.39,148.34,400.41,140.59,400.41z"/>
		<path class="st4" d="M371.41,112.59c7.48,0,14.51,2.91,19.8,8.2c5.29,5.29,8.2,12.32,8.2,19.8c0,7.48-2.91,14.51-8.2,19.8
			L160.39,391.21c-5.29,5.29-12.32,8.2-19.8,8.2c-7.48,0-14.51-2.91-19.8-8.2c-5.29-5.29-8.2-12.32-8.2-19.8s2.91-14.51,8.2-19.8
			l230.81-230.81C356.9,115.51,363.93,112.59,371.41,112.59 M371.41,110.59c-7.68,0-15.36,2.93-21.21,8.79L119.38,350.19
			c-11.72,11.72-11.72,30.71,0,42.43h0c5.86,5.86,13.54,8.79,21.21,8.79c7.68,0,15.36-2.93,21.21-8.79l230.81-230.81
			c11.72-11.72,11.72-30.71,0-42.43l0,0C386.76,113.52,379.08,110.59,371.41,110.59L371.41,110.59z"/>
	</g>
	<g>
		<path class="st3" d="M371.64,400.89c-7.75,0-15.03-3.02-20.51-8.49L120.32,161.58c-11.31-11.31-11.31-29.71,0-41.01
			c5.48-5.48,12.76-8.49,20.51-8.49c7.75,0,15.03,3.02,20.51,8.49l230.81,230.81c5.48,5.48,8.49,12.76,8.49,20.51
			s-3.02,15.03-8.49,20.51C386.67,397.87,379.39,400.89,371.64,400.89z"/>
		<path class="st4" d="M140.83,113.08c7.48,0,14.51,2.91,19.8,8.2l230.81,230.81c10.92,10.92,10.92,28.68,0,39.6
			c-5.29,5.29-12.32,8.2-19.8,8.2c-7.48,0-14.51-2.91-19.8-8.2L121.03,160.88c-10.92-10.92-10.92-28.68,0-39.6
			C126.32,115.99,133.35,113.08,140.83,113.08 M140.83,111.08c-7.68,0-15.36,2.93-21.21,8.79h0c-11.72,11.72-11.72,30.71,0,42.43
			L350.43,393.1c5.86,5.86,13.54,8.79,21.21,8.79c7.68,0,15.36-2.93,21.21-8.79c11.72-11.72,11.72-30.71,0-42.43L162.04,119.86
			C156.18,114.01,148.5,111.08,140.83,111.08L140.83,111.08z"/>
	</g>
</g>
<g id="Lugs">
	<g id="Unused_Smaller" class="st0">
		<path class="st1" d="M371,170.5c-16.27,0-29.5-13.23-29.5-29.5v-29.5h59V141C400.5,157.27,387.27,170.5,371,170.5z"/>
		<path class="st2" d="M400,112v29c0,15.99-13.01,29-29,29c-15.99,0-29-13.01-29-29v-29H400 M401,111h-60v30c0,16.57,13.43,30,30,30
			c16.57,0,30-13.43,30-30V111L401,111z"/>
	</g>
	<g id="Bottom_Right">
		<path class="st5" d="M332,402v-29c0-21.5,17.5-39,39-39c21.5,0,39,17.5,39,39v29H332z"/>
		<g>
			<path class="st6" d="M371,335c20.95,0,38,17.05,38,38v28h-76v-28C333,352.05,350.05,335,371,335 M371,333
				c-22.09,0-40,17.91-40,40v30h80v-30C411,350.91,393.09,333,371,333L371,333z"/>
		</g>
	</g>
	<g id="Bottom_Left">
		<path class="st5" d="M102,402v-29c0-21.5,17.5-39,39-39s39,17.5,39,39v29H102z"/>
		<g>
			<path class="st6" d="M141,333v2c20.95,0,38,17.05,38,38v28h-76v-28c0-20.95,17.05-38,38-38V333 M141,333c-22.09,0-40,17.91-40,40
				v30h80v-30C181,350.91,163.09,333,141,333L141,333z"/>
		</g>
	</g>
	<g id="Top_Right">
		<path class="st5" d="M371,178c-21.5,0-39-17.5-39-39v-29h78v29C410,160.5,392.5,178,371,178z"/>
		<g>
			<path class="st6" d="M409,111v28c0,20.95-17.05,38-38,38c-20.95,0-38-17.05-38-38v-28H409 M411,109h-80v30
				c0,22.09,17.91,40,40,40s40-17.91,40-40V109L411,109z"/>
		</g>
	</g>
	<g id="Top_Left_1_">
		<path class="st5" d="M141,178c-21.5,0-39-17.5-39-39v-29h78v29C180,160.5,162.5,178,141,178z"/>
		<g>
			<path class="st6" d="M179,111v28c0,20.95-17.05,38-38,38s-38-17.05-38-38v-28H179 M181,109h-80v30c0,22.09,17.91,40,40,40
				s40-17.91,40-40V109L181,109z"/>
		</g>
	</g>
</g>
<g id="Nuts">
	<g id="Bottom_Right_1_">
		<circle class="st7" cx="371" cy="373" r="15"/>
		<path class="st8" d="M371,359c7.72,0,14,6.28,14,14s-6.28,14-14,14s-14-6.28-14-14S363.28,359,371,359 M371,357
			c-8.84,0-16,7.16-16,16s7.16,16,16,16c8.84,0,16-7.16,16-16S379.84,357,371,357L371,357z"/>
	</g>
	<g id="Bottom_Left_1_">
		<circle class="st7" cx="141" cy="373" r="15"/>
		<path class="st8" d="M141,359c7.72,0,14,6.28,14,14s-6.28,14-14,14c-7.72,0-14-6.28-14-14S133.28,359,141,359 M141,357
			c-8.84,0-16,7.16-16,16c0,8.84,7.16,16,16,16c8.84,0,16-7.16,16-16C157,364.16,149.84,357,141,357L141,357z"/>
	</g>
	<g id="Top_Left_2_">
		<circle class="st7" cx="141" cy="139" r="15"/>
		<path class="st8" d="M141,125c7.72,0,14,6.28,14,14s-6.28,14-14,14c-7.72,0-14-6.28-14-14S133.28,125,141,125 M141,123
			c-8.84,0-16,7.16-16,16s7.16,16,16,16c8.84,0,16-7.16,16-16S149.84,123,141,123L141,123z"/>
	</g>
	<g id="Top_Right_1_">
		<circle class="st7" cx="371" cy="139" r="15"/>
		<path class="st8" d="M371,125c7.72,0,14,6.28,14,14s-6.28,14-14,14s-14-6.28-14-14S363.28,125,371,125 M371,123
			c-8.84,0-16,7.16-16,16s7.16,16,16,16c8.84,0,16-7.16,16-16S379.84,123,371,123L371,123z"/>
	</g>
	<g id="Top_Left_3_">
		<circle class="st7" cx="256" cy="256" r="15"/>
		<path class="st8" d="M256,242c7.72,0,14,6.28,14,14s-6.28,14-14,14s-14-6.28-14-14S248.28,242,256,242 M256,240
			c-8.84,0-16,7.16-16,16c0,8.84,7.16,16,16,16c8.84,0,16-7.16,16-16C272,247.16,264.84,240,256,240L256,240z"/>
	</g>
</g>
<g id="Bases">
	<g id="Top">
		<path class="st9" d="M56,110c-13.23,0-24-10.77-24-24V56c0-13.23,10.77-24,24-24h400c13.23,0,24,10.77,24,24v30
			c0,13.23-10.77,24-24,24H56z"/>
		<path class="st6" d="M456,33c12.68,0,23,10.32,23,23v30c0,12.68-10.32,23-23,23H56c-12.68,0-23-10.32-23-23V56
			c0-12.68,10.32-23,23-23H456 M456,31H56c-13.81,0-25,11.19-25,25v30c0,13.81,11.19,25,25,25h400c13.81,0,25-11.19,25-25V56
			C481,42.19,469.81,31,456,31L456,31z"/>
	</g>
	<g id="Bottom">
		<path class="st9" d="M56,480c-13.23,0-24-10.77-24-24v-30c0-13.23,10.77-24,24-24h400c13.23,0,24,10.77,24,24v30
			c0,13.23-10.77,24-24,24H56z"/>
		<path class="st6" d="M456,403c12.68,0,23,10.32,23,23v30c0,12.68-10.32,23-23,23H56c-12.68,0-23-10.32-23-23v-30
			c0-12.68,10.32-23,23-23H456 M456,401H56c-13.81,0-25,11.19-25,25v30c0,13.81,11.19,25,25,25h400c13.81,0,25-11.19,25-25v-30
			C481,412.19,469.81,401,456,401L456,401z"/>
	</g>
</g>
</svg>
